<svg id="Ebene_1" data-name="Ebene 1" xmlns="http://www.w3.org/2000/svg" viewBox="0 0 1000 1000"><defs><style>.cls-1{fill:#4fb3bf;}.cls-2{fill:#fff;}</style></defs><circle class="cls-1" cx="500" cy="500" r="500"/><path class="cls-2" d="M779.13188,268.35084c-25.66886,0-60.12284,30.9697-76.32031,46.7361L499.93137,107.02682l-2.60808-2.53389L294.58038,312.41229c-17.15834-16.47026-49.416-44.06145-73.575-44.06145C186.27694,268.35084,158,297.34975,158,332.96493S186.27694,397.579,221.00542,397.579c24.02167,0,56.00482-27.30966,73.16316-43.77991l200.54667,205.667L497.32332,562,703.08611,350.98367c16.19747,15.90716,50.51415,46.45456,75.90847,46.45456C813.723,397.43823,842,368.43932,842,332.82415S813.723,268.35085,779.13188,268.35084Zm-466.7068,62.64327L497.32329,141.375,684.41783,333.24645,497.32329,525.11788,312.15052,335.21727l-2.01751-1.97081Zm-36.10115,4.22313c-19.21734,18.30027-43.10175,36.17824-55.18121,36.17824-20.72728,0-37.61108-17.31487-37.61108-38.57136s16.8838-38.57136,37.61108-38.57136c12.21673,0,36.2384,18.15951,55.45574,36.4598l2.22982,2.11156Zm540.28175-2.25234c0,21.25648-16.8838,38.57136-37.6111,38.57136-12.62851,0-37.6111-18.86337-57.652-38.57136,19.49185-19.00415,45.02347-38.57136,57.652-38.57136C799.72183,294.39354,816.60568,311.70841,816.60568,332.9649Z"/><path class="cls-2" d="M230.18049,837.02508V685.95686q0-28.095,17.04123-45.90386,17.04123-17.8058,44.21509-17.80886,32.24016,0,49.58845,29.63025,10.5932-15.96348,22.72164-22.7984,12.12691-6.83031,29.9373-6.83185,28.247,0,43.29394,17.80886,15.04465,17.81039,15.04542,51.27722V837.02508h-62.331V700.69522q0-10.13262-1.612-13.4334-1.612-3.29772-6.52479-3.30078-9.21149,0-9.21148,15.65951V837.02508h-62.331V700.69522q0-9.976-1.68877-13.35664-1.69032-3.376-6.60156-3.37754-9.21148,0-9.21148,16.73418V837.02508Z"/><path class="cls-2" d="M640.39826,627.464,549.05112,849l-90.733-221.536h72.15657l19.19057,65.40148,21.1864-65.40148Z"/><path class="cls-2" d="M765.82787,708.98555V755.657h-40.684q-8.29034,0-11.74463,2.4564-3.4543,2.45946-3.45431,8.29033,0,6.60462,3.53107,8.67414,3.53029,2.07258,14.43131,2.07258h41.91222v59.8746H720.84516q-34.543,0-52.81247-16.5039-18.271-16.50236-18.26943-47.66939V690.71612q0-30.08929,17.27152-46.67148Q684.30631,627.464,715.62532,627.464h54.19419v60.18165H730.05664q-16.12008,0-16.12009,10.43967,0,6.14406,3.83812,8.52062,3.83658,2.38116,13.66369,2.37963Z"/></svg>