<?xml version="1.0" encoding="utf-8"?>
<!-- Generator: Adobe Illustrator 25.4.1, SVG Export Plug-In . SVG Version: 6.00 Build 0)  -->
<svg version="1.1" id="Ebene_1" xmlns="http://www.w3.org/2000/svg" xmlns:xlink="http://www.w3.org/1999/xlink" x="0px" y="0px"
	 viewBox="0 0 1000 1000" style="enable-background:new 0 0 1000 1000;" xml:space="preserve">
<style type="text/css">
	.st0{fill:#FFFFFF;}
</style>
<g>
	<polygon class="st0" points="312.4,331 310.1,333.2 312.2,335.2 497.3,525.1 684.4,333.2 497.3,141.4 	"/>
	<path class="st0" d="M221.1,294.3c-20.7,0-37.6,17.3-37.6,38.6s16.9,38.6,37.6,38.6c12.1,0,36-17.9,55.2-36.2l2.5-2.4l-2.2-2.1
		C257.4,312.4,233.4,294.3,221.1,294.3z"/>
	<path class="st0" d="M779,294.4c-12.6,0-38.2,19.6-57.7,38.6c20,19.7,45,38.6,57.7,38.6c20.7,0,37.6-17.3,37.6-38.6h0
		C816.6,311.7,799.7,294.4,779,294.4z"/>
	<path class="st0" d="M500,0C223.9,0,0,223.9,0,500s223.9,500,500,500s500-223.9,500-500S776.1,0,500,0z M452,837h-62.3V700.7
		c0-6.8-0.5-11.2-1.6-13.4c-1.1-2.2-3.2-3.3-6.5-3.3c-6.1,0-9.2,5.2-9.2,15.7V837H310V700.7c0-6.7-0.6-11.1-1.7-13.4
		c-1.1-2.3-3.3-3.4-6.6-3.4c-6.1,0-9.2,5.6-9.2,16.7V837h-62.3V686c0-18.7,5.7-34,17-45.9c11.4-11.9,26.1-17.8,44.2-17.8
		c21.5,0,38,9.9,49.6,29.6c7.1-10.6,14.6-18.2,22.7-22.8c8.1-4.6,18.1-6.8,29.9-6.8c18.8,0,33.3,5.9,43.3,17.8
		c10,11.9,15,29,15,51.3V837z M549.1,849l-90.7-221.5h72.2l19.2,65.4l21.2-65.4h69.5L549.1,849z M769.8,837h-49
		c-23,0-40.6-5.5-52.8-16.5c-12.2-11-18.3-26.9-18.3-47.7v-82.1c0-20.1,5.8-35.6,17.3-46.7c11.5-11.1,27.7-16.6,48.6-16.6h54.2v60.2
		h-39.8c-10.7,0-16.1,3.5-16.1,10.4c0,4.1,1.3,6.9,3.8,8.5c2.6,1.6,7.1,2.4,13.7,2.4l34.4,0v46.7h-40.7c-5.5,0-9.4,0.8-11.7,2.5
		c-2.3,1.6-3.5,4.4-3.5,8.3c0,4.4,1.2,7.3,3.5,8.7c2.4,1.4,7.2,2.1,14.4,2.1h41.9V837z M779,397.4c-25.4,0-59.7-30.5-75.9-46.5
		L497.3,562l-2.6-2.5L294.2,353.8C277,370.3,245,397.6,221,397.6c-34.7,0-63-29-63-64.6s28.3-64.6,63-64.6
		c24.2,0,56.4,27.6,73.6,44.1l202.7-207.9l2.6,2.5l202.9,208.1c16.2-15.8,50.7-46.7,76.3-46.7c34.6,0,62.9,28.9,62.9,64.5
		S813.7,397.4,779,397.4z"/>
</g>
</svg>
